<svg width="42" height="42" viewBox="0 0 42 42" fill="none" xmlns="http://www.w3.org/2000/svg">
<g clip-path="url(#clip0_2_22)">
<path d="M31.0534 24.5468C32.1478 24.2051 34.369 23.4191 36.367 19.8038C39.1692 14.7337 39.8234 8.02798 37.8608 5.90186" stroke="black" stroke-width="1.70584" stroke-miterlimit="1.5" stroke-linecap="round" stroke-linejoin="round"/>
<path d="M37.3702 17.6778C37.7442 13.0643 33.8647 12.8223 34.0843 8.51877" stroke="black" stroke-width="1.7417" stroke-miterlimit="1.5" stroke-linecap="round" stroke-linejoin="round"/>
<path d="M34.9018 21.6031C36.7009 18.3321 32.3863 18.1185 33.2663 15.061" stroke="black" stroke-width="1.16613" stroke-miterlimit="1.5" stroke-linecap="round" stroke-linejoin="round"/>
<path d="M10.9466 24.5468C9.85216 24.2051 7.63098 23.4191 5.63303 19.8038C2.83083 14.7337 2.17659 8.02798 4.13924 5.90186" stroke="black" stroke-width="1.70584" stroke-miterlimit="1.5" stroke-linecap="round" stroke-linejoin="round"/>
<path d="M4.62977 17.6778C4.25576 13.0643 8.13527 12.8223 7.91567 8.51877" stroke="black" stroke-width="1.7417" stroke-miterlimit="1.5" stroke-linecap="round" stroke-linejoin="round"/>
<path d="M7.09822 21.6031C5.29915 18.3321 9.61366 18.1185 8.73375 15.061" stroke="black" stroke-width="1.16613" stroke-miterlimit="1.5" stroke-linecap="round" stroke-linejoin="round"/>
<path fill-rule="evenodd" clip-rule="evenodd" d="M30.1859 16.5881C30.1859 14.0291 28.1083 11.9515 25.5493 11.9515H16.2761C13.717 11.9515 11.6395 14.0291 11.6395 16.5881V25.8613C11.6395 28.4204 13.717 30.4979 16.2761 30.4979H25.5493C28.1083 30.4979 30.1859 28.4204 30.1859 25.8613V16.5881Z" fill="white" stroke="black" stroke-width="2.33314" stroke-miterlimit="1.5" stroke-linecap="round" stroke-linejoin="round"/>
<path d="M21.5014 21.8054L16.3594 23.9645V22.3523L19.7543 21.081L19.7045 21.1626V20.9744L19.7543 21.0526L16.3594 19.7848V18.169L21.5014 20.3281V21.8054ZM26.2661 24V25.2713H21.4117V24H26.2661Z" fill="black"/>
</g>
<defs>
<clipPath id="clip0_2_22">
<rect width="42" height="42" fill="white"/>
</clipPath>
</defs>
</svg>
