<svg width="114" height="42" viewBox="0 0 114 42" fill="none" xmlns="http://www.w3.org/2000/svg">
<g clip-path="url(#clip0_2_44)">
<path d="M31.0534 24.5468C32.1478 24.2051 34.369 23.4191 36.367 19.8038C39.1692 14.7337 39.8234 8.02798 37.8608 5.90186" stroke="black" stroke-width="1.70584" stroke-miterlimit="1.5" stroke-linecap="round" stroke-linejoin="round"/>
<path d="M37.3702 17.6778C37.7442 13.0643 33.8647 12.8223 34.0843 8.51877" stroke="black" stroke-width="1.7417" stroke-miterlimit="1.5" stroke-linecap="round" stroke-linejoin="round"/>
<path d="M34.9018 21.6031C36.7009 18.3321 32.3863 18.1185 33.2663 15.061" stroke="black" stroke-width="1.16613" stroke-miterlimit="1.5" stroke-linecap="round" stroke-linejoin="round"/>
<path d="M10.9466 24.5468C9.85216 24.2051 7.63098 23.4191 5.63303 19.8038C2.83083 14.7337 2.17659 8.02798 4.13924 5.90186" stroke="black" stroke-width="1.70584" stroke-miterlimit="1.5" stroke-linecap="round" stroke-linejoin="round"/>
<path d="M4.62977 17.6778C4.25576 13.0643 8.13527 12.8223 7.91567 8.51877" stroke="black" stroke-width="1.7417" stroke-miterlimit="1.5" stroke-linecap="round" stroke-linejoin="round"/>
<path d="M7.09822 21.6031C5.29915 18.3321 9.61366 18.1185 8.73375 15.061" stroke="black" stroke-width="1.16613" stroke-miterlimit="1.5" stroke-linecap="round" stroke-linejoin="round"/>
<path fill-rule="evenodd" clip-rule="evenodd" d="M30.1859 16.5881C30.1859 14.0291 28.1083 11.9515 25.5493 11.9515H16.2761C13.717 11.9515 11.6395 14.0291 11.6395 16.5881V25.8613C11.6395 28.4204 13.717 30.4979 16.2761 30.4979H25.5493C28.1083 30.4979 30.1859 28.4204 30.1859 25.8613V16.5881Z" fill="white" stroke="black" stroke-width="2.33314" stroke-miterlimit="1.5" stroke-linecap="round" stroke-linejoin="round"/>
<path d="M21.5014 21.8054L16.3594 23.9645V22.3523L19.7543 21.081L19.7045 21.1626V20.9744L19.7543 21.0526L16.3594 19.7848V18.169L21.5014 20.3281V21.8054ZM26.2661 24V25.2713H21.4117V24H26.2661Z" fill="black"/>
</g>
<path d="M49.152 23.456C49.2 24.384 49.388 25.144 49.716 25.736C50.044 26.32 50.472 26.752 51 27.032C51.528 27.304 52.112 27.44 52.752 27.44C53.384 27.44 53.964 27.344 54.492 27.152C55.02 26.96 55.556 26.68 56.1 26.312L57.144 27.764C56.552 28.236 55.868 28.612 55.092 28.892C54.316 29.164 53.512 29.3 52.68 29.3C51.416 29.3 50.34 29.024 49.452 28.472C48.572 27.912 47.9 27.136 47.436 26.144C46.98 25.152 46.752 24 46.752 22.688C46.752 21.416 46.98 20.28 47.436 19.28C47.9 18.28 48.552 17.492 49.392 16.916C50.232 16.34 51.232 16.052 52.392 16.052C53.48 16.052 54.416 16.304 55.2 16.808C55.992 17.312 56.6 18.032 57.024 18.968C57.448 19.896 57.66 21.008 57.66 22.304C57.66 22.52 57.656 22.728 57.648 22.928C57.64 23.128 57.628 23.304 57.612 23.456H49.152ZM52.416 17.852C51.52 17.852 50.772 18.172 50.172 18.812C49.58 19.452 49.24 20.44 49.152 21.776H55.44C55.416 20.496 55.136 19.524 54.6 18.86C54.072 18.188 53.344 17.852 52.416 17.852ZM64.8386 11.264V25.736C64.8386 26.344 65.0266 26.776 65.4026 27.032C65.7786 27.28 66.2626 27.404 66.8546 27.404C67.2306 27.404 67.5866 27.364 67.9226 27.284C68.2586 27.204 68.5946 27.1 68.9306 26.972L69.5306 28.616C69.1786 28.792 68.7386 28.948 68.2106 29.084C67.6826 29.228 67.0866 29.3 66.4226 29.3C65.2386 29.3 64.2946 28.968 63.5906 28.304C62.8866 27.64 62.5346 26.728 62.5346 25.568V13.016H58.6826V11.264H64.8386ZM82.8293 16.352L77.3813 22.028L83.4293 29H80.5133L74.6213 22.088L79.9853 16.352H82.8293ZM74.4053 10.988V29H72.1013V11.264L74.4053 10.988Z" fill="black"/>
<defs>
<clipPath id="clip0_2_44">
<rect width="42" height="42" fill="white"/>
</clipPath>
</defs>
</svg>
